<?xml version="1.0" standalone="no"?>
<!DOCTYPE svg PUBLIC "-//W3C//DTD SVG 20010904//EN"
 "http://www.w3.org/TR/2001/REC-SVG-20010904/DTD/svg10.dtd">
<svg version="1.0" xmlns="http://www.w3.org/2000/svg"
 width="500.000000pt" height="500.000000pt" viewBox="0 0 500.000000 500.000000"
 preserveAspectRatio="xMidYMid meet">
<metadata>
Created by potrace 1.14, written by Peter Selinger 2001-2017
</metadata>
<g transform="translate(0.000000,500.000000) scale(0.100000,-0.100000)"
fill="#000000" stroke="none">
<path d="M2350 4497 c-3 -3 -39 -8 -80 -11 -158 -14 -350 -64 -550 -144 -217
-86 -473 -263 -655 -454 -150 -157 -234 -270 -326 -443 -96 -179 -179 -409
-205 -565 -2 -14 -6 -35 -9 -46 -23 -102 -27 -491 -6 -614 7 -41 14 -84 16
-95 2 -11 12 -58 24 -105 52 -214 145 -427 268 -612 l45 -68 75 0 75 0 -16 23
c-175 237 -302 522 -351 787 -27 149 -38 425 -22 560 15 123 17 135 43 240
136 551 520 1015 1040 1256 168 78 414 145 589 161 140 12 378 7 470 -11 11
-2 42 -7 70 -11 80 -11 277 -72 382 -117 268 -115 483 -270 683 -494 255 -286
429 -698 457 -1082 35 -484 -78 -873 -376 -1293 -13 -18 -11 -19 61 -19 l75 0
45 68 c166 250 282 567 315 868 14 125 6 466 -12 534 -2 8 -7 31 -10 50 -53
316 -214 660 -431 920 -306 366 -764 628 -1221 696 -21 3 -49 8 -63 10 -32 7
-394 16 -400 11z"/>
<path d="M1873 3892 c-2 -11 -22 -26 -43 -36 -44 -19 -62 -53 -62 -119 0 -50
23 -94 56 -107 19 -8 19 -9 -4 -9 -15 -1 -31 -6 -38 -13 -23 -23 -8 -92 24
-111 8 -4 14 -11 14 -15 0 -4 -147 -7 -326 -7 -212 0 -332 -3 -341 -10 -12 -9
-14 -115 -14 -715 0 -388 0 -713 1 -722 0 -15 9 -18 45 -18 42 0 45 2 46 28 3
79 6 99 23 124 20 31 49 44 99 47 22 1 24 6 26 64 2 65 17 99 52 118 18 9 558
16 827 10 23 -1 43 -10 63 -30 26 -27 29 -36 29 -95 0 -70 -2 -68 55 -66 3 0
19 -7 35 -15 40 -21 60 -63 60 -129 l0 -56 680 0 680 0 0 724 c0 569 -3 727
-12 733 -17 10 -608 11 -608 1 0 -5 4 -8 9 -8 9 0 31 -46 35 -76 5 -33 -13
-69 -58 -117 -47 -49 -92 -66 -136 -49 -23 9 -30 4 -83 -59 -31 -37 -57 -72
-57 -77 0 -8 101 -100 127 -116 7 -4 23 0 35 8 44 31 82 21 155 -41 429 -362
511 -434 528 -474 40 -88 14 -176 -79 -272 -60 -61 -123 -84 -196 -72 -49 8
-75 27 -330 244 -107 92 -217 184 -243 205 -69 56 -90 111 -57 151 5 6 6 15 2
20 -12 17 -129 115 -137 115 -7 0 -68 -66 -107 -116 -16 -20 -16 -25 -3 -57
24 -59 4 -111 -70 -176 -26 -23 -45 -31 -73 -31 -47 0 -51 2 -232 156 -14 12
-102 87 -196 167 -94 80 -174 153 -178 162 -16 43 -6 84 34 134 56 70 104 91
160 67 11 -5 52 36 148 149 73 85 132 158 132 163 0 4 -78 7 -172 6 -95 0
-176 2 -181 4 -4 2 4 17 18 34 19 23 25 41 25 78 0 98 -35 130 -139 130 -51 0
-59 2 -56 18 2 9 4 20 4 25 1 4 19 7 42 7 32 0 46 -6 61 -25 33 -43 88 -23 88
32 0 30 -63 98 -84 90 -9 -4 -16 3 -20 19 -5 20 -13 24 -42 24 -26 0 -37 -5
-41 -18z m87 -298 c0 -23 -3 -25 -46 -23 -32 2 -48 8 -55 21 -15 28 -6 33 50
30 47 -4 51 -6 51 -28z m-545 -192 c5 -11 20 -24 33 -27 67 -17 101 -115 46
-135 -29 -12 -64 2 -64 25 0 11 -13 15 -50 15 -46 0 -50 -2 -50 -24 0 -23 3
-25 56 -25 105 0 140 -35 136 -135 -2 -52 -26 -90 -66 -102 -12 -3 -30 -18
-42 -32 -16 -20 -26 -24 -47 -18 -14 3 -29 15 -32 26 -3 11 -13 20 -21 20 -48
0 -96 78 -74 120 16 29 67 27 81 -3 9 -20 17 -23 52 -22 23 2 45 3 50 4 4 1 7
10 7 21 0 23 3 22 -70 24 -93 3 -120 28 -126 115 -4 52 -1 63 22 90 14 17 31
31 38 31 7 0 27 13 44 29 34 33 62 34 77 3z m2241 -47 c14 -14 29 -25 34 -25
18 0 68 -51 74 -75 15 -59 -39 -91 -82 -48 -24 24 -43 29 -102 24 -5 -1 -10
-12 -10 -24 0 -22 4 -24 66 -26 36 -1 75 -7 85 -14 32 -20 50 -71 44 -122 -7
-57 -21 -81 -60 -97 -16 -7 -38 -23 -48 -35 -24 -29 -51 -29 -74 1 -10 13 -28
26 -39 30 -12 3 -30 16 -42 29 -56 61 -4 150 54 92 17 -17 38 -26 69 -28 43
-3 45 -2 45 23 0 25 -2 26 -47 25 -105 -3 -142 26 -148 113 -4 58 20 105 62
125 15 6 37 22 50 35 28 28 38 28 69 -3z m-1982 -378 c40 -81 43 -119 10 -131
-34 -13 -55 7 -94 85 -22 43 -41 81 -43 83 -7 13 40 47 62 44 21 -2 33 -17 65
-81z m217 -47 c10 -6 19 -17 19 -24 0 -8 12 -17 28 -21 39 -9 61 -33 68 -72 5
-25 2 -39 -11 -53 -23 -26 -75 -15 -75 16 0 14 -21 18 -70 14 -35 -3 -39 -7
-33 -31 4 -14 13 -20 32 -19 77 5 103 0 132 -29 24 -25 29 -38 29 -80 0 -73
-14 -100 -60 -119 -22 -9 -40 -22 -40 -29 0 -7 -10 -17 -21 -24 -25 -13 -69 2
-69 23 -1 7 -20 22 -43 33 -34 16 -44 27 -51 57 -11 46 4 68 46 68 21 0 31 -6
35 -20 5 -19 15 -22 63 -22 42 0 48 2 45 20 -2 9 -4 19 -4 22 -1 3 -31 6 -68
7 -62 1 -70 4 -95 32 -24 27 -28 40 -28 89 0 77 29 115 93 121 4 1 7 8 7 16 0
13 26 34 43 35 5 0 17 -5 28 -10z m-419 -76 c86 -31 98 -39 98 -68 0 -52 -33
-57 -141 -19 -87 30 -109 54 -83 92 19 27 37 27 126 -5z m132 -215 c24 -35 3
-61 -82 -100 -82 -38 -109 -39 -121 -5 -14 36 -1 52 72 89 84 42 110 45 131
16z m1223 -112 c10 -13 35 -32 55 -41 63 -30 74 -113 17 -131 -20 -7 -19 -7 5
-30 29 -27 28 -23 31 -85 4 -61 -19 -106 -61 -122 -19 -6 -36 -20 -40 -30 -3
-10 -17 -21 -31 -24 -21 -6 -31 -2 -47 18 -12 14 -31 29 -43 32 -52 16 -86
112 -47 134 24 13 62 2 69 -19 5 -15 16 -19 56 -19 46 0 50 2 47 22 -3 20 -9
22 -62 24 -95 3 -127 32 -131 118 -2 57 23 102 68 121 17 7 38 23 45 34 16 28
46 27 69 -2z"/>
<path d="M2756 2402 c-11 -3 -16 -11 -14 -25 3 -20 10 -22 67 -25 l63 -3 -21
27 c-21 26 -51 34 -95 26z"/>
<path d="M2642 3787 c-12 -13 -22 -30 -22 -38 0 -8 46 -53 103 -101 56 -47
118 -99 137 -116 152 -130 265 -222 271 -222 15 0 63 71 53 78 -11 7 -185 153
-194 162 -3 3 -34 30 -70 60 -36 30 -67 57 -70 60 -22 23 -170 140 -177 140
-5 0 -19 -10 -31 -23z"/>
<path d="M2591 3573 l-33 -38 44 -38 c110 -97 329 -279 331 -276 1 2 15 19 31
37 34 37 41 26 -69 117 -33 28 -62 52 -65 55 -3 3 -34 30 -70 60 -36 30 -81
69 -101 88 l-36 33 -32 -38z"/>
<path d="M2475 3437 c-5 -7 -45 -55 -89 -106 l-79 -94 34 -31 c34 -31 160
-138 275 -233 l63 -53 48 58 c26 31 50 59 53 62 30 29 88 109 82 112 -5 1 -33
24 -63 49 -194 167 -294 249 -303 249 -6 -1 -15 -6 -21 -13z"/>
<path d="M2211 3124 c-35 -43 -42 -31 64 -119 33 -27 65 -54 71 -60 6 -5 32
-28 59 -50 26 -22 70 -59 97 -82 l50 -41 32 36 33 35 -36 32 c-20 17 -97 82
-171 145 -74 62 -142 119 -151 127 -15 12 -20 10 -48 -23z"/>
<path d="M2017 3042 c-15 -15 -27 -33 -27 -39 0 -6 57 -60 128 -119 70 -60
138 -118 152 -131 14 -12 71 -61 128 -108 l103 -85 29 34 c17 18 30 36 30 39
0 3 -39 38 -87 78 -49 41 -99 83 -113 95 -124 107 -310 264 -313 264 -2 0 -15
-13 -30 -28z"/>
<path d="M2844 2964 l-28 -36 30 -23 c16 -12 47 -39 69 -59 22 -19 43 -36 46
-36 3 0 20 16 37 34 l31 35 -57 48 c-31 26 -63 54 -70 61 -20 18 -29 15 -58
-24z"/>
<path d="M3094 2807 c-38 -45 -79 -93 -91 -107 -13 -14 -23 -28 -23 -31 0 -10
100 -91 109 -87 12 4 181 205 181 215 0 4 -17 22 -37 38 -75 60 -63 63 -139
-28z"/>
<path d="M3298 2672 c-26 -31 -65 -77 -87 -102 -22 -25 -41 -50 -41 -56 0 -7
32 -38 71 -70 l72 -58 29 34 c16 19 44 52 61 74 40 48 47 56 75 88 l23 25 -73
62 c-39 33 -74 61 -77 61 -4 0 -27 -26 -53 -58z"/>
<path d="M3495 2454 c-110 -134 -109 -132 -93 -147 7 -7 37 -32 66 -55 43 -34
62 -42 95 -42 37 0 46 6 90 52 89 95 87 140 -8 223 -34 30 -66 55 -71 54 -5 0
-40 -38 -79 -85z"/>
<path d="M1480 2295 c-5 -6 -8 -28 -6 -49 l2 -39 374 1 c206 1 382 1 391 2 12
0 15 9 14 43 -2 23 -3 44 -4 47 -2 11 -762 5 -771 -5z"/>
<path d="M1330 2060 l0 -50 535 0 c468 0 535 2 536 15 1 8 1 26 1 40 0 14 0
30 -1 35 -1 7 -187 10 -536 10 l-535 0 0 -50z"/>
<path d="M1138 1870 c-2 -25 -1 -67 2 -95 l5 -50 1344 -3 c1006 -1 1347 1
1358 9 10 9 13 34 11 98 l-3 86 -1357 0 -1356 0 -4 -45z m959 -27 c18 -27 9
-60 -20 -69 -12 -4 -47 -6 -77 -5 -67 2 -96 26 -78 66 13 28 22 31 102 30 49
-1 61 -4 73 -22z m677 8 c23 -19 20 -58 -5 -71 -30 -17 -524 -16 -544 0 -21
17 -19 56 4 72 28 20 521 19 545 -1z m297 -2 c13 -21 11 -55 -5 -68 -8 -7 -45
-12 -82 -12 -54 0 -71 4 -81 17 -17 23 -16 44 2 64 19 21 152 20 166 -1z"/>
<path d="M2345 1615 c-10 -8 -105 -307 -105 -330 0 -3 117 -5 261 -5 205 0
260 3 256 13 -2 6 -24 80 -47 162 -24 83 -47 154 -51 159 -11 12 -299 13 -314
1z"/>
<path d="M1003 1298 c-87 -90 -142 -151 -143 -159 0 -3 13 -18 29 -33 l28 -27
62 63 61 63 -31 -65 c-48 -100 -48 -102 -18 -131 15 -15 31 -23 36 -19 4 4 39
24 77 44 74 40 74 36 -1 -44 l-42 -45 26 -27 c15 -16 31 -28 36 -28 6 0 23 15
39 33 16 17 55 59 86 92 31 33 66 70 76 83 l19 22 -38 35 -38 35 -95 -45 c-52
-25 -97 -43 -99 -41 -2 2 5 23 16 47 27 58 63 151 59 153 -2 0 -19 16 -39 34
l-36 33 -70 -73z"/>
<path d="M3922 1333 c-20 -4 -152 -122 -152 -136 0 -3 50 -56 111 -117 l111
-111 29 32 29 33 -42 43 c-45 46 -39 51 27 28 59 -21 76 -19 107 18 l28 32
-23 7 c-12 4 -40 12 -62 17 -39 10 -40 11 -40 55 0 69 -54 113 -123 99z m42
-105 c8 -13 5 -22 -14 -43 l-24 -25 -23 22 -23 22 22 23 c25 26 45 27 62 1z"/>
<path d="M2004 1182 c-26 -5 -44 -30 -44 -64 l0 -28 539 0 539 0 -3 36 c-2 33
-16 52 -40 55 -29 3 -974 3 -991 1z"/>
<path d="M3653 1110 c-108 -48 -135 -173 -57 -260 68 -75 179 -71 247 9 106
127 -39 319 -190 251z m99 -84 c25 -19 47 -64 41 -86 -8 -31 -42 -60 -72 -60
-49 0 -98 73 -79 116 18 39 77 55 110 30z"/>
<path d="M1285 983 c-43 -65 -83 -123 -88 -130 -6 -8 18 -29 77 -69 48 -31 88
-55 89 -53 35 49 36 55 9 72 -55 34 -64 45 -57 66 8 27 22 26 66 -3 l36 -25
21 28 20 27 -43 29 c-36 25 -41 32 -31 47 14 24 20 23 70 -11 l43 -30 16 29
c9 15 17 30 17 33 0 5 -153 107 -161 107 -3 0 -41 -53 -84 -117z"/>
<path d="M3372 937 l-112 -58 15 -29 c18 -35 17 -35 56 -14 17 8 32 14 34 12
4 -3 59 -108 94 -176 l22 -43 39 22 39 22 -55 106 c-30 59 -54 110 -54 113 0
3 16 13 35 22 35 17 37 30 11 66 -9 13 -27 7 -124 -43z"/>
<path d="M1617 825 c-26 -53 -54 -98 -63 -102 -18 -7 -35 13 -28 32 5 12 -72
52 -81 43 -3 -2 -7 -19 -9 -36 -4 -37 22 -83 60 -109 35 -22 98 -21 124 2 11
10 44 66 74 125 l55 107 -35 16 c-19 10 -38 17 -42 17 -4 0 -29 -43 -55 -95z"/>
<path d="M3136 840 c-49 -15 -86 -58 -86 -101 0 -60 25 -81 106 -88 77 -7 96
-15 87 -36 -6 -16 -53 -21 -53 -6 0 6 -20 3 -45 -6 -25 -8 -45 -17 -45 -20 0
-20 27 -44 60 -53 101 -27 199 54 169 139 -12 34 -44 49 -117 56 -61 5 -72 10
-72 32 0 12 8 14 33 10 35 -6 107 11 107 25 0 5 -12 20 -26 33 -28 26 -65 31
-118 15z"/>
<path d="M1805 821 c-49 -22 -73 -48 -90 -98 -39 -112 49 -221 169 -211 60 5
96 27 124 78 27 47 32 89 17 134 -32 92 -134 137 -220 97z m119 -90 c45 -50 5
-141 -62 -141 -10 0 -31 11 -45 24 -20 18 -25 31 -21 53 13 81 82 115 128 64z"/>
<path d="M2085 757 c-2 -6 -6 -30 -9 -52 -6 -44 -14 -100 -25 -160 -13 -74 -9
-89 24 -95 46 -9 53 -3 61 57 7 62 14 60 40 -16 19 -55 39 -71 90 -71 29 0 29
1 2 69 -22 52 -22 54 -4 65 62 37 83 93 52 141 -27 42 -56 52 -199 71 -16 2
-29 -1 -32 -9z m141 -91 c35 -27 -15 -67 -62 -49 -6 2 -8 17 -6 33 5 34 34 41
68 16z"/>
<path d="M2805 747 c-74 -42 -102 -135 -63 -215 70 -145 290 -103 306 58 12
131 -128 222 -243 157z m133 -81 c8 -7 16 -31 19 -52 6 -47 -17 -81 -59 -88
-52 -9 -101 58 -83 114 14 44 89 59 123 26z"/>
<path d="M2444 715 c-2 -5 -2 -48 0 -95 3 -47 5 -114 5 -150 1 -65 1 -66 29
-64 15 1 35 3 44 3 13 1 17 10 16 39 -1 64 1 69 25 69 56 1 69 5 98 31 54 48
43 134 -22 167 -34 18 -189 18 -195 0z m150 -71 c23 -23 4 -54 -33 -54 -24 0
-29 4 -29 28 0 41 33 56 62 26z"/>
</g>
</svg>
